<?xml version="1.0" standalone="no"?>
<svg xmlns:xlink="http://www.w3.org/1999/xlink" id="wave" style="transform:rotate(0deg); transition: 0.3s" viewBox="0 0 1440 370" version="1.1" xmlns="http://www.w3.org/2000/svg"><defs><linearGradient id="sw-gradient-0" x1="0" x2="0" y1="1" y2="0"><stop stop-color="rgba(105.845, 62, 243, 1)" offset="0%"/><stop stop-color="rgba(177.57, 11, 255, 1)" offset="100%"/></linearGradient></defs><path style="transform:translate(0, 0px); opacity:1" fill="url(#sw-gradient-0)" d="M0,74L60,74C120,74,240,74,360,92.5C480,111,600,148,720,154.2C840,160,960,136,1080,129.5C1200,123,1320,136,1440,141.8C1560,148,1680,148,1800,123.3C1920,99,2040,49,2160,49.3C2280,49,2400,99,2520,135.7C2640,173,2760,197,2880,178.8C3000,160,3120,99,3240,98.7C3360,99,3480,160,3600,166.5C3720,173,3840,123,3960,98.7C4080,74,4200,74,4320,111C4440,148,4560,222,4680,240.5C4800,259,4920,222,5040,172.7C5160,123,5280,62,5400,37C5520,12,5640,25,5760,74C5880,123,6000,210,6120,246.7C6240,284,6360,271,6480,228.2C6600,185,6720,111,6840,67.8C6960,25,7080,12,7200,61.7C7320,111,7440,222,7560,246.7C7680,271,7800,210,7920,209.7C8040,210,8160,271,8280,302.2C8400,333,8520,333,8580,333L8640,333L8640,370L8580,370C8520,370,8400,370,8280,370C8160,370,8040,370,7920,370C7800,370,7680,370,7560,370C7440,370,7320,370,7200,370C7080,370,6960,370,6840,370C6720,370,6600,370,6480,370C6360,370,6240,370,6120,370C6000,370,5880,370,5760,370C5640,370,5520,370,5400,370C5280,370,5160,370,5040,370C4920,370,4800,370,4680,370C4560,370,4440,370,4320,370C4200,370,4080,370,3960,370C3840,370,3720,370,3600,370C3480,370,3360,370,3240,370C3120,370,3000,370,2880,370C2760,370,2640,370,2520,370C2400,370,2280,370,2160,370C2040,370,1920,370,1800,370C1680,370,1560,370,1440,370C1320,370,1200,370,1080,370C960,370,840,370,720,370C600,370,480,370,360,370C240,370,120,370,60,370L0,370Z"/><defs><linearGradient id="sw-gradient-1" x1="0" x2="0" y1="1" y2="0"><stop stop-color="rgba(136.505, 62, 243, 1)" offset="0%"/><stop stop-color="rgba(235.436, 11, 255, 1)" offset="100%"/></linearGradient></defs><path style="transform:translate(0, 50px); opacity:0.9" fill="url(#sw-gradient-1)" d="M0,74L60,67.8C120,62,240,49,360,80.2C480,111,600,185,720,185C840,185,960,111,1080,80.2C1200,49,1320,62,1440,92.5C1560,123,1680,173,1800,166.5C1920,160,2040,99,2160,86.3C2280,74,2400,111,2520,154.2C2640,197,2760,247,2880,259C3000,271,3120,247,3240,240.5C3360,234,3480,247,3600,234.3C3720,222,3840,185,3960,172.7C4080,160,4200,173,4320,148C4440,123,4560,62,4680,43.2C4800,25,4920,49,5040,86.3C5160,123,5280,173,5400,172.7C5520,173,5640,123,5760,98.7C5880,74,6000,74,6120,92.5C6240,111,6360,148,6480,141.8C6600,136,6720,86,6840,98.7C6960,111,7080,185,7200,191.2C7320,197,7440,136,7560,129.5C7680,123,7800,173,7920,191.2C8040,210,8160,197,8280,160.3C8400,123,8520,62,8580,30.8L8640,0L8640,370L8580,370C8520,370,8400,370,8280,370C8160,370,8040,370,7920,370C7800,370,7680,370,7560,370C7440,370,7320,370,7200,370C7080,370,6960,370,6840,370C6720,370,6600,370,6480,370C6360,370,6240,370,6120,370C6000,370,5880,370,5760,370C5640,370,5520,370,5400,370C5280,370,5160,370,5040,370C4920,370,4800,370,4680,370C4560,370,4440,370,4320,370C4200,370,4080,370,3960,370C3840,370,3720,370,3600,370C3480,370,3360,370,3240,370C3120,370,3000,370,2880,370C2760,370,2640,370,2520,370C2400,370,2280,370,2160,370C2040,370,1920,370,1800,370C1680,370,1560,370,1440,370C1320,370,1200,370,1080,370C960,370,840,370,720,370C600,370,480,370,360,370C240,370,120,370,60,370L0,370Z"/></svg>