<?xml version="1.0" standalone="no"?>
<svg xmlns:xlink="http://www.w3.org/1999/xlink" id="wave" style="transform:rotate(0deg); transition: 0.3s" viewBox="0 0 1440 470" version="1.1" xmlns="http://www.w3.org/2000/svg"><defs><linearGradient id="sw-gradient-0" x1="0" x2="0" y1="1" y2="0"><stop stop-color="rgba(105.845, 62, 243, 1)" offset="0%"/><stop stop-color="rgba(177.57, 11, 255, 1)" offset="100%"/></linearGradient></defs><path style="transform:translate(0, 0px); opacity:1" fill="url(#sw-gradient-0)" d="M0,94L24,94C48,94,96,94,144,117.5C192,141,240,188,288,195.8C336,204,384,172,432,164.5C480,157,528,172,576,180.2C624,188,672,188,720,156.7C768,125,816,63,864,62.7C912,63,960,125,1008,172.3C1056,219,1104,251,1152,227.2C1200,204,1248,125,1296,125.3C1344,125,1392,204,1440,211.5C1488,219,1536,157,1584,125.3C1632,94,1680,94,1728,141C1776,188,1824,282,1872,305.5C1920,329,1968,282,2016,219.3C2064,157,2112,78,2160,47C2208,16,2256,31,2304,94C2352,157,2400,266,2448,313.3C2496,360,2544,345,2592,289.8C2640,235,2688,141,2736,86.2C2784,31,2832,16,2880,78.3C2928,141,2976,282,3024,313.3C3072,345,3120,266,3168,266.3C3216,266,3264,345,3312,383.8C3360,423,3408,423,3432,423L3456,423L3456,470L3432,470C3408,470,3360,470,3312,470C3264,470,3216,470,3168,470C3120,470,3072,470,3024,470C2976,470,2928,470,2880,470C2832,470,2784,470,2736,470C2688,470,2640,470,2592,470C2544,470,2496,470,2448,470C2400,470,2352,470,2304,470C2256,470,2208,470,2160,470C2112,470,2064,470,2016,470C1968,470,1920,470,1872,470C1824,470,1776,470,1728,470C1680,470,1632,470,1584,470C1536,470,1488,470,1440,470C1392,470,1344,470,1296,470C1248,470,1200,470,1152,470C1104,470,1056,470,1008,470C960,470,912,470,864,470C816,470,768,470,720,470C672,470,624,470,576,470C528,470,480,470,432,470C384,470,336,470,288,470C240,470,192,470,144,470C96,470,48,470,24,470L0,470Z"/><defs><linearGradient id="sw-gradient-1" x1="0" x2="0" y1="1" y2="0"><stop stop-color="rgba(62, 116.269, 243, 1)" offset="0%"/><stop stop-color="rgba(235.436, 11, 255, 1)" offset="100%"/></linearGradient></defs><path style="transform:translate(0, 50px); opacity:0.9" fill="url(#sw-gradient-1)" d="M0,94L24,86.2C48,78,96,63,144,101.8C192,141,240,235,288,235C336,235,384,141,432,101.8C480,63,528,78,576,117.5C624,157,672,219,720,211.5C768,204,816,125,864,109.7C912,94,960,141,1008,195.8C1056,251,1104,313,1152,329C1200,345,1248,313,1296,305.5C1344,298,1392,313,1440,297.7C1488,282,1536,235,1584,219.3C1632,204,1680,219,1728,188C1776,157,1824,78,1872,54.8C1920,31,1968,63,2016,109.7C2064,157,2112,219,2160,219.3C2208,219,2256,157,2304,125.3C2352,94,2400,94,2448,117.5C2496,141,2544,188,2592,180.2C2640,172,2688,110,2736,125.3C2784,141,2832,235,2880,242.8C2928,251,2976,172,3024,164.5C3072,157,3120,219,3168,242.8C3216,266,3264,251,3312,203.7C3360,157,3408,78,3432,39.2L3456,0L3456,470L3432,470C3408,470,3360,470,3312,470C3264,470,3216,470,3168,470C3120,470,3072,470,3024,470C2976,470,2928,470,2880,470C2832,470,2784,470,2736,470C2688,470,2640,470,2592,470C2544,470,2496,470,2448,470C2400,470,2352,470,2304,470C2256,470,2208,470,2160,470C2112,470,2064,470,2016,470C1968,470,1920,470,1872,470C1824,470,1776,470,1728,470C1680,470,1632,470,1584,470C1536,470,1488,470,1440,470C1392,470,1344,470,1296,470C1248,470,1200,470,1152,470C1104,470,1056,470,1008,470C960,470,912,470,864,470C816,470,768,470,720,470C672,470,624,470,576,470C528,470,480,470,432,470C384,470,336,470,288,470C240,470,192,470,144,470C96,470,48,470,24,470L0,470Z"/></svg>